<svg xmlns="http://www.w3.org/2000/svg" xmlns:xlink="http://www.w3.org/1999/xlink" preserveAspectRatio="xMidYMid" width="72.781" height="72.781" viewBox="0 0 72.781 72.781">
  <defs>
    <style>
      .cls-1 {
        fill: #efefef;
        fill-rule: evenodd;
      }
    </style>
  </defs>
  <path d="M53.346,36.375 L69.255,52.285 C73.942,56.971 73.942,64.569 69.255,69.255 C64.569,73.942 56.971,73.942 52.285,69.255 L36.375,53.346 L20.465,69.255 C15.779,73.942 8.181,73.942 3.495,69.255 C-1.192,64.569 -1.192,56.971 3.495,52.285 L19.404,36.375 L3.495,20.465 C-1.192,15.779 -1.192,8.181 3.495,3.495 C8.181,-1.192 15.779,-1.192 20.465,3.495 L36.375,19.404 L52.285,3.495 C56.971,-1.192 64.569,-1.192 69.255,3.495 C73.942,8.181 73.942,15.779 69.255,20.465 L53.346,36.375 Z" class="cls-1"/>
</svg>
