<svg xmlns="http://www.w3.org/2000/svg" xmlns:xlink="http://www.w3.org/1999/xlink" preserveAspectRatio="xMidYMid" width="46" height="59" viewBox="0 0 46 59">
  <defs>
    <style>
      .cls-1 {
        fill: #fcfcfc;
        fill-rule: evenodd;
      }
    </style>
  </defs>
  <path d="M43.149,59.000 L2.851,59.000 C1.277,59.000 -0.000,57.730 -0.000,56.163 L-0.000,26.285 C-0.000,24.719 1.277,23.449 2.851,23.449 L5.893,23.449 C5.893,23.449 6.083,21.239 6.083,16.830 C6.083,7.535 13.657,-0.000 23.000,-0.000 C32.343,-0.000 39.917,7.535 39.917,16.830 C39.917,21.623 39.917,23.449 39.917,23.449 L43.149,23.449 C44.723,23.449 46.000,24.719 46.000,26.285 L46.000,56.163 C46.000,57.730 44.723,59.000 43.149,59.000 ZM21.479,39.584 L21.479,44.628 C21.479,45.464 22.160,46.141 23.000,46.141 C23.840,46.141 24.521,45.464 24.521,44.628 L24.521,39.584 C25.863,39.000 26.802,37.669 26.802,36.119 C26.802,34.030 25.100,32.337 23.000,32.337 C20.900,32.337 19.198,34.030 19.198,36.119 C19.198,37.669 20.137,39.000 21.479,39.584 ZM34.595,15.979 C34.595,9.661 29.446,5.106 23.095,5.106 C16.744,5.106 11.595,9.661 11.595,15.979 C11.595,18.899 11.595,23.449 11.595,23.449 L34.595,23.449 C34.595,23.449 34.595,18.830 34.595,15.979 Z" class="cls-1"/>
</svg>
