<svg xmlns="http://www.w3.org/2000/svg" xmlns:xlink="http://www.w3.org/1999/xlink" preserveAspectRatio="xMidYMid" width="44.938" height="51" viewBox="0 0 44.938 51">
  <defs>
    <style>
      .cls-1 {
        fill: #efefef;
        fill-rule: evenodd;
      }
    </style>
  </defs>
  <path d="M39.000,44.000 L37.000,43.000 C37.000,43.000 49.137,21.835 34.056,6.071 C33.851,13.807 32.609,28.317 27.000,46.000 L26.243,45.622 C24.410,48.750 19.404,51.000 13.500,51.000 C6.044,51.000 0.000,47.418 0.000,43.000 C0.000,38.582 6.044,35.000 13.500,35.000 C18.394,35.000 22.667,36.548 25.034,38.858 C27.656,31.483 31.791,16.908 31.000,0.000 L34.000,0.000 C34.000,0.000 34.027,0.381 34.052,1.085 C38.264,5.644 53.115,24.066 39.000,44.000 Z" class="cls-1"/>
</svg>
